<svg width="864" height="663" viewBox="0 0 864 663" fill="none" xmlns="http://www.w3.org/2000/svg">
<g clip-path="url(#clip0_1_5071)">
<path d="M263.309 168.821C263.309 166.545 265.16 164.707 267.421 164.707C348.52 164.707 389.211 164.707 408.588 145.326C427.965 125.944 427.965 85.2306 427.965 4.12796C427.965 1.85194 429.802 0.0141602 432.078 0.0141602C434.353 0.0141602 436.191 1.85194 436.191 4.12796C436.191 85.2447 436.191 125.944 455.568 145.326C474.945 164.707 515.65 164.707 596.734 164.707C599.009 164.707 600.847 166.559 600.847 168.821C600.847 171.083 599.009 172.935 596.734 172.935C515.635 172.935 474.945 172.935 455.568 192.317C436.191 211.698 436.191 252.412 436.191 333.515C436.191 335.791 434.353 337.628 432.078 337.628C429.802 337.628 427.965 335.776 427.965 333.515C427.965 252.398 427.965 211.698 408.588 192.317C389.211 172.935 348.506 172.935 267.421 172.935C265.146 172.935 263.309 171.083 263.309 168.821ZM863.406 249.344C862.276 247.365 859.746 246.715 857.781 247.832C857.767 247.832 857.739 247.86 857.711 247.86C857.696 247.86 857.682 247.874 857.64 247.888C787.495 288.39 752.274 308.733 725.83 301.622C699.386 294.539 679.034 259.325 638.555 189.192C638.527 189.136 638.484 189.093 638.47 189.037C637.34 187.058 634.81 186.407 632.845 187.524C631.531 188.288 630.782 189.659 630.782 191.087C630.782 191.793 630.965 192.5 631.319 193.151C631.347 193.207 631.389 193.25 631.404 193.306C631.46 193.391 631.488 193.447 631.531 193.518C671.925 263.495 692.192 298.682 685.111 325.117C683.924 329.556 681.945 333.741 679.444 337.586C676.532 342.067 672.956 346.11 669.126 349.828C664.405 354.409 659.275 358.537 654.003 362.438C647.488 367.259 640.732 371.754 633.891 376.109C625.566 381.41 617.115 386.499 608.62 391.518C598.458 397.526 588.24 403.435 578.021 409.33C568.933 414.575 559.775 419.692 550.687 424.951C546.107 427.595 541.542 430.252 536.963 432.896C530.9 436.402 524.836 439.922 518.773 443.428L504.187 451.868C502.943 452.588 501.7 453.309 500.456 454.03C458.154 478.501 405.987 478.558 363.657 454.101C362.526 453.451 361.382 452.786 360.251 452.136L351.375 447.004C347.262 444.629 343.149 442.254 339.05 439.88L325.284 431.935C320.889 429.39 316.493 426.86 312.098 424.315L301.498 418.194C293.286 413.458 285.23 408.453 276.99 403.774C273.866 402.007 270.757 400.226 267.648 398.431C260.609 394.331 253.585 390.203 246.589 386.004C240.511 382.343 234.448 378.625 228.483 374.794C223.325 371.486 218.222 368.093 213.247 364.531C208.979 361.477 204.81 358.31 200.81 354.918C197.404 352.034 194.111 348.98 191.086 345.686C188.485 342.845 186.069 339.82 184.019 336.554C182.182 333.628 180.641 330.503 179.525 327.238C179.242 326.418 178.988 325.584 178.776 324.75C171.695 298.314 191.962 263.142 232.356 193.151C232.413 193.066 232.441 193.009 232.483 192.939C232.512 192.882 232.554 192.84 232.568 192.797C232.95 192.161 233.133 191.426 233.105 190.733C233.105 189.32 232.37 187.934 231.042 187.171C229.077 186.04 226.561 186.704 225.402 188.683C225.374 188.74 225.332 188.782 225.318 188.825C184.839 258.957 164.487 294.172 138.043 301.254C111.599 308.337 76.4202 288.051 6.38833 247.62C6.36006 247.605 6.31766 247.591 6.28939 247.549C6.21872 247.521 6.16219 247.464 6.09152 247.436C4.12695 246.305 1.61118 246.969 0.466355 248.948C0.155416 249.613 -0.0283203 250.32 -0.0283203 251.027C-0.0283203 252.44 0.706626 253.826 2.03518 254.589C72.265 295.133 107.5 315.49 114.595 341.982C121.676 368.418 101.408 403.605 61.0146 473.582C60.9722 473.666 60.9298 473.737 60.8874 473.794C60.8592 473.85 60.8168 473.893 60.8026 473.949C60.421 474.614 60.2373 475.32 60.2655 476.013C60.2655 477.427 61.0005 478.812 62.329 479.576C62.9651 479.957 63.6859 480.141 64.3925 480.141C65.8059 480.141 67.191 479.406 67.9683 478.077C67.9966 478.02 68.039 477.978 68.0531 477.922C108.532 407.789 128.884 372.574 155.328 365.492C158.607 364.615 161.985 364.177 165.377 364.106C169.122 364.036 172.868 364.417 176.543 365.082C180.783 365.845 184.966 366.99 189.051 368.333C193.856 369.917 198.563 371.783 203.198 373.79C208.626 376.151 213.968 378.71 219.254 381.382C225.402 384.478 231.48 387.715 237.515 391.023C244.469 394.826 251.366 398.713 258.249 402.629C266.644 407.407 275.054 412.171 283.364 417.077C290.841 421.488 298.346 425.884 305.865 430.224L318.839 437.717L332.747 445.746L345.524 453.126L355.092 458.653L359.389 461.127L359.445 461.169C401.719 485.584 427.767 530.68 427.795 579.508L427.823 658.915C427.823 660.441 428.643 661.77 429.887 662.491C430.481 662.845 431.187 663.057 431.936 663.042C434.212 663.042 436.049 661.205 436.035 658.929V579.791C436.007 531.005 462.013 485.881 504.244 461.452C506.547 460.123 508.837 458.794 511.141 457.452C516.653 454.257 522.165 451.062 527.677 447.881C534.334 444.036 540.991 440.176 547.634 436.331C553.358 433.023 559.068 429.715 564.792 426.393C575.632 420.116 586.572 413.981 597.441 407.747C606.896 402.318 616.365 396.932 625.934 391.687C633.849 387.347 641.834 383.106 649.961 379.162C656.576 375.953 663.303 372.914 670.2 370.369C675.769 368.305 681.479 366.538 687.33 365.478C692.178 364.601 697.139 364.22 702.043 364.686C704.276 364.898 706.481 365.294 708.644 365.874C735.088 372.956 755.44 408.171 795.919 478.303C795.947 478.36 795.989 478.402 796.003 478.459C796.767 479.773 798.152 480.523 799.579 480.523C800.272 480.523 800.978 480.339 801.643 479.957C802.957 479.194 803.706 477.808 803.706 476.395C803.706 475.688 803.522 474.981 803.169 474.331C803.141 474.288 803.098 474.232 803.084 474.189C803.042 474.105 802.999 474.034 802.957 473.977C762.563 404 742.296 368.814 749.377 342.378C756.458 315.914 791.678 295.571 861.823 255.07C861.838 255.07 861.852 255.056 861.866 255.041C861.894 255.041 861.922 255.013 861.951 254.999C863.265 254.236 864.014 252.864 864.014 251.436C864.014 250.73 863.83 250.023 863.477 249.373H863.421L863.406 249.344Z" fill="#B25028"></path>
</g>
<defs>
<clipPath id="clip0_1_5071">
<rect width="864" height="663" fill="#B25028"></rect>
</clipPath>
</defs>
</svg>