<svg width="1080" height="1080" viewBox="0 0 1080 1080" fill="none" xmlns="http://www.w3.org/2000/svg">
<rect width="1080" height="1080" fill="white"></rect>
<path d="M237 800.748C237 775.897 253.404 757.256 276.018 757.256H327.466V774.651H284.72C275.901 774.651 270.926 779.625 270.926 788.445V813.051C270.926 821.754 275.901 826.845 284.72 826.845H327.466V844.239H276.018C253.404 844.239 237 825.598 237 800.748Z" fill="#0B0B0B"></path>
<path d="M339.524 757.256H370.596V844.239H339.524V757.256Z" fill="#0B0B0B"></path>
<path d="M384.264 757.256H458.827C473.985 757.256 485.053 767.94 485.053 782.363C485.053 796.787 473.996 807.47 458.827 807.47H451.872L486.672 844.251H447.771L414.963 806.468V844.251H384.264V757.268V757.256ZM414.963 773.288V795.284H442.307C448.773 795.284 452.373 791.928 452.373 786.091V782.491C452.373 776.771 448.773 773.299 442.307 773.299H414.963V773.288Z" fill="#0B0B0B"></path>
<path d="M494.488 757.256H525.56V844.239H494.488V757.256Z" fill="#0B0B0B"></path>
<path d="M539.223 757.256H601.355C623.968 757.256 640.372 775.897 640.372 800.748C640.372 825.598 623.968 844.239 601.355 844.239H539.223V757.256ZM606.446 814.67V786.837C606.446 778.018 601.355 773.043 592.652 773.043H569.91V828.464H592.652C601.355 828.464 606.446 823.373 606.446 814.67Z" fill="#0B0B0B"></path>
<path d="M677.656 757.256H712.829L753.594 844.239H720.169L712.34 826.472H667.357L659.155 844.239H637.031L677.668 757.256H677.656ZM704.743 809.451L690.075 776.771L675.035 809.451H704.732H704.743Z" fill="#0B0B0B"></path>
<path d="M760.919 757.256H843.184V774.278H791.246V790.682H843.184V807.458H791.246V827.09H843.184V844.239H760.919V757.256Z" fill="#0B0B0B"></path>
<g clip-path="url(#clip0_1_5073)">
<path d="M423.169 294.116C423.169 292.537 424.456 291.262 426.029 291.262C482.439 291.262 510.742 291.262 524.22 277.815C537.698 264.369 537.698 236.122 537.698 179.854C537.698 178.275 538.976 177 540.559 177C542.142 177 543.42 178.275 543.42 179.854C543.42 236.132 543.42 264.369 556.898 277.815C570.376 291.262 598.689 291.262 655.089 291.262C656.671 291.262 657.949 292.547 657.949 294.116C657.949 295.685 656.671 296.97 655.089 296.97C598.679 296.97 570.376 296.97 556.898 310.417C543.42 323.863 543.42 352.11 543.42 408.378C543.42 409.957 542.142 411.232 540.559 411.232C538.976 411.232 537.698 409.947 537.698 408.378C537.698 352.1 537.698 323.863 524.22 310.417C510.742 296.97 482.429 296.97 426.029 296.97C424.447 296.97 423.169 295.685 423.169 294.116ZM840.577 349.982C839.791 348.609 838.031 348.157 836.665 348.932C836.655 348.932 836.635 348.952 836.615 348.952C836.606 348.952 836.596 348.962 836.566 348.971C787.776 377.071 763.277 391.185 744.884 386.251C726.49 381.337 712.334 356.906 684.178 308.249C684.158 308.21 684.129 308.18 684.119 308.141C683.333 306.768 681.573 306.317 680.206 307.092C679.292 307.621 678.771 308.573 678.771 309.563C678.771 310.054 678.899 310.544 679.145 310.995C679.164 311.035 679.194 311.064 679.204 311.103C679.243 311.162 679.263 311.201 679.292 311.25C707.389 359.799 721.486 384.211 716.561 402.552C715.735 405.632 714.359 408.535 712.619 411.202C710.594 414.312 708.106 417.117 705.442 419.696C702.159 422.874 698.59 425.738 694.923 428.445C690.391 431.789 685.692 434.908 680.934 437.929C675.143 441.607 669.265 445.138 663.356 448.62C656.288 452.788 649.18 456.888 642.072 460.977C635.751 464.616 629.381 468.167 623.06 471.815C619.874 473.649 616.699 475.493 613.514 477.327C609.296 479.76 605.079 482.202 600.861 484.634L590.716 490.489C589.851 490.99 588.986 491.49 588.121 491.99C558.697 508.967 522.411 509.007 492.968 492.039C492.181 491.588 491.385 491.127 490.599 490.676L484.425 487.115C481.564 485.468 478.703 483.82 475.852 482.172L466.277 476.66C463.22 474.895 460.162 473.139 457.105 471.374L449.732 467.127C444.02 463.841 438.416 460.369 432.685 457.123C430.512 455.897 428.35 454.661 426.187 453.416C421.291 450.571 416.405 447.707 411.539 444.794C407.311 442.254 403.094 439.675 398.945 437.017C395.357 434.722 391.808 432.368 388.348 429.896C385.379 427.778 382.479 425.581 379.697 423.227C377.327 421.226 375.037 419.108 372.933 416.822C371.124 414.851 369.443 412.752 368.018 410.486C366.739 408.456 365.668 406.289 364.891 404.023C364.695 403.454 364.518 402.876 364.37 402.297C359.445 383.956 373.542 359.554 401.639 310.995C401.678 310.936 401.698 310.897 401.728 310.848C401.747 310.809 401.777 310.78 401.787 310.75C402.052 310.309 402.18 309.799 402.16 309.318C402.16 308.337 401.649 307.376 400.725 306.847C399.358 306.062 397.608 306.523 396.802 307.896C396.783 307.935 396.753 307.965 396.743 307.994C368.588 356.651 354.431 381.082 336.038 385.996C317.644 390.91 293.175 376.836 244.463 348.785C244.444 348.775 244.414 348.765 244.394 348.736C244.345 348.716 244.306 348.677 244.257 348.658C242.89 347.873 241.14 348.334 240.344 349.707C240.128 350.168 240 350.658 240 351.149C240 352.13 240.511 353.091 241.435 353.62C290.285 381.749 314.793 395.873 319.728 414.253C324.654 432.593 310.556 457.005 282.459 505.554C282.43 505.613 282.401 505.662 282.371 505.701C282.351 505.741 282.322 505.77 282.312 505.809C282.047 506.27 281.919 506.761 281.938 507.241C281.938 508.222 282.45 509.183 283.374 509.713C283.816 509.978 284.318 510.105 284.809 510.105C285.792 510.105 286.756 509.595 287.296 508.673C287.316 508.634 287.345 508.605 287.355 508.565C315.511 459.908 329.667 435.477 348.061 430.563C350.342 429.955 352.691 429.651 355.051 429.602C357.656 429.553 360.261 429.818 362.817 430.279C365.766 430.808 368.676 431.603 371.517 432.535C374.86 433.633 378.133 434.928 381.358 436.32C385.133 437.958 388.849 439.734 392.526 441.587C396.802 443.735 401.03 445.981 405.227 448.276C410.064 450.915 414.862 453.612 419.649 456.329C425.489 459.644 431.338 462.949 437.119 466.352C442.319 469.412 447.539 472.462 452.769 475.473L461.794 480.672L471.468 486.243L480.355 491.362L487.01 495.197L489.999 496.914L490.038 496.943C519.442 513.881 537.561 545.168 537.58 579.045L537.6 634.136C537.6 635.195 538.17 636.117 539.035 636.617C539.448 636.862 539.94 637.009 540.461 637C542.043 637 543.321 635.724 543.312 634.145V579.241C543.292 545.394 561.381 514.087 590.755 497.139C592.358 496.217 593.95 495.295 595.553 494.363C599.387 492.147 603.221 489.93 607.055 487.724C611.685 485.056 616.316 482.378 620.936 479.711C624.918 477.415 628.889 475.12 632.871 472.816C640.411 468.461 648.02 464.204 655.58 459.879C662.157 456.113 668.744 452.376 675.399 448.737C680.904 445.726 686.459 442.784 692.112 440.047C696.712 437.821 701.392 435.712 706.189 433.947C710.063 432.515 714.034 431.289 718.104 430.553C721.476 429.945 724.927 429.68 728.338 430.004C729.892 430.151 731.425 430.426 732.929 430.828C751.323 435.742 765.479 460.173 793.635 508.83C793.655 508.869 793.684 508.899 793.694 508.938C794.225 509.85 795.188 510.37 796.181 510.37C796.663 510.37 797.154 510.242 797.616 509.978C798.531 509.448 799.052 508.487 799.052 507.506C799.052 507.016 798.924 506.525 798.678 506.074C798.659 506.045 798.629 506.005 798.619 505.976C798.59 505.917 798.56 505.868 798.531 505.829C770.434 457.28 756.337 432.868 761.262 414.527C766.187 396.167 790.686 382.053 839.476 353.954C839.486 353.954 839.496 353.944 839.506 353.934C839.525 353.934 839.545 353.915 839.565 353.905C840.479 353.375 841 352.424 841 351.433C841 350.943 840.872 350.452 840.626 350.001H840.587L840.577 349.982Z" fill="#0B0B0B"></path>
</g>
<defs>
<clipPath id="clip0_1_5073">
<rect width="614" height="470" fill="white" transform="translate(233 190)"></rect>
</clipPath>
</defs>
</svg>